<svg height="493pt" viewBox="0 -46 493.87648 493" width="493pt" xmlns="http://www.w3.org/2000/svg"><path d="m346 368.4375h-280c-18.21875-.019531-32.980469-14.78125-33-33v-187.425781c-.003906-3.777344.648438-7.523438 1.917969-11.082031-13.132813 4.699218-21.902344 17.136718-21.917969 31.082031v187.425781c.019531 18.21875 14.78125 32.980469 33 33h280c13.945312-.015625 26.382812-8.785156 31.082031-21.917969-3.558593 1.273438-7.304687 1.921875-11.082031 1.917969zm0 0" fill="#d4e1f4"/><g fill="#1ae5be"><path d="m393.476562 153.507812-30.175781-19.335937v-62.699219c0-3.867187-3.136719-7-7-7-3.867187 0-7 3.132813-7 7v66.527344c0 2.382812 1.214844 4.605469 3.222657 5.890625l33.398437 21.402344c3.257813 2.085937 7.585937 1.136719 9.671875-2.117188 2.085938-3.257812 1.136719-7.585937-2.117188-9.671875zm0 0"/><path d="m247 120.007812v14h-6.828125c-.113281-2.179687-.167969-4.371093-.171875-6.570312 0-2.488281.070312-4.964844.210938-7.429688zm0 0"/><path d="m367 .4375c-67.253906 0-122.851562 52.429688-126.789062 119.570312h6.789062v14h-6.828125c1.511719 30.140626 13.75 58.746094 34.507813 80.652344 3.097656 3.277344 6.367187 6.390625 9.789062 9.328125 3.617188 3.121094 7.414062 6.03125 11.371094 8.710938 19.007812 12.929687 41.203125 20.386719 64.160156 21.550781 2.320312.128906 4.652344.191406 7 .1875 2.351562 0 4.679688-.058594 7-.199219 68.621094-3.855469 121.722656-61.597656 119.828125-130.300781s-58.101563-123.433594-126.828125-123.5zm0 240c-62.40625 0-113-50.589844-113-113 0-62.40625 50.59375-113 113-113s113 50.59375 113 113c0 62.410156-50.59375 113-113 113zm0 0"/></g><path d="m374 254.238281v100.199219c0 25.957031-21.042969 47-47 47h-280c-12.769531.003906-24.988281-5.203125-33.828125-14.417969-.367187-.242187-.707031-.515625-1.023437-.820312-.519532-.515625-.960938-1.109375-1.296876-1.761719-7.019531-8.421875-10.8593745-19.039062-10.851562-30v-187.429688c0-25.957031 21.042969-47 47-47h193.210938c-.140626 2.460938-.210938 4.9375-.210938 7.429688 0 2.199219.058594 4.390625.171875 6.570312h-193.171875c-15.746094.019532-29.292969 11.148438-32.371094 26.589844l153.679688 130.128906c10.8125 9.199219 26.699218 9.191407 37.5-.019531l78.660156-66.71875c3.617188 3.121094 7.414062 6.03125 11.371094 8.710938l-80.980469 68.6875c-16.011719 13.660156-39.574219 13.667969-55.597656.023437l-145.261719-123v176.027344c-.007812 5.507812 1.371094 10.925781 4.011719 15.761719l83.628906-85.539063c2.703125-2.765625 7.136719-2.816406 9.898437-.113281 2.765626 2.703125 2.8125 7.136719.109376 9.902344l-84.449219 86.367187c5.703125 4.308594 12.65625 6.632813 19.800781 6.621094h280c7.125.007812 14.0625-2.300781 19.761719-6.578125l-80.011719-81.410156c-2.707031-2.757813-2.667969-7.191407.089844-9.902344 2.757812-2.707031 7.191406-2.667969 9.898437.089844l79.222657 80.613281c2.652343-4.847656 4.042968-10.285156 4.039062-15.8125v-100.1875c2.320312.128906 4.652344.191406 7 .1875 2.351562 0 4.679688-.058594 7-.199219zm0 0" fill="#0635c9"/></svg>