<svg height="494pt" viewBox="0 -46 494.00002 494" width="494pt" xmlns="http://www.w3.org/2000/svg"><path d="m346 368h-280c-18.21875-.019531-32.980469-14.78125-33-33v-187.425781c-.003906-3.777344.648438-7.523438 1.917969-11.082031-13.132813 4.699218-21.902344 17.132812-21.917969 31.082031v187.425781c.019531 18.21875 14.78125 32.980469 33 33h280c13.945312-.015625 26.382812-8.785156 31.082031-21.917969-3.558593 1.269531-7.304687 1.921875-11.082031 1.917969zm0 0" fill="#d4e1f4"/><path d="m367 188.410156c3.867188 0 7-3.136718 7-7v-92.738281l33.230469 30.929687c2.832031 2.609376 7.242187 2.4375 9.867187-.378906 2.625-2.820312 2.476563-7.230468-.328125-9.871094l-45-41.882812c-2.6875-2.5-6.851562-2.5-9.539062 0l-45 41.882812c-1.84375 1.699219-2.640625 4.257813-2.082031 6.707032.558593 2.445312 2.382812 4.40625 4.785156 5.136718 2.398437.734376 5.007812.125 6.835937-1.59375l33.230469-30.929687v92.738281c0 3.863282 3.132812 7 7 7zm0 0" fill="#1ae5be"/><path d="m187.046875 311.199219c10.195313-.003907 20.054687-3.636719 27.8125-10.25l85.164063-72.226563c2.917968-2.507812 3.265624-6.902344.773437-9.835937-2.488281-2.933594-6.878906-3.3125-9.828125-.839844l-85.164062 72.226563c-10.800782 9.210937-26.691407 9.21875-37.5.015624l-156.78125-132.761718c-2.953126-2.488282-7.363282-2.117188-9.855469.828125-2.496094 2.949219-2.132813 7.359375.808593 9.859375l156.785157 132.757812c7.753906 6.597656 17.605469 10.222656 27.785156 10.226563zm0 0" fill="#1ae5be"/><path d="m367 0c-67.257812-.015625-122.855469 52.429688-126.765625 119.574219h-193.234375c-25.945312.027343-46.9726562 21.054687-47 47v187.425781c-.0117188 10.960938 3.828125 21.578125 10.847656 30 .542969 1.042969 1.339844 1.933594 2.324219 2.582031 8.839844 9.214844 21.058594 14.421875 33.828125 14.417969h280c12.75.003906 24.953125-5.191406 33.792969-14.382812.988281-.652344 1.796875-1.546876 2.34375-2.601563 7.027343-8.421875 10.871093-19.046875 10.863281-30.015625v-100.191406c66.785156-3.648438 120-59.125 120-126.808594-.078125-70.105469-56.890625-126.921875-127-127zm-7 354c.007812 5.523438-1.382812 10.960938-4.039062 15.808594l-84.132813-85.601563c-2.71875-2.703125-7.109375-2.71875-9.84375-.03125-2.734375 2.691407-2.796875 7.078125-.140625 9.84375l84.914062 86.394531c-5.695312 4.28125-12.632812 6.59375-19.757812 6.585938h-280c-7.144531.007812-14.097656-2.316406-19.800781-6.617188l84.449219-86.375c1.773437-1.78125 2.453124-4.378906 1.78125-6.804687-.667969-2.425781-2.589844-4.300781-5.027344-4.917969-2.441406-.617187-5.023438.121094-6.765625 1.9375l-83.625 85.535156c-2.640625-4.832031-4.019531-10.253906-4.011719-15.757812v-187.425781c.019531-18.21875 14.78125-32.980469 33-33h193.171875c3.355469 64.808593 55.03125 116.660156 119.828125 120.238281zm7-114c-62.40625 0-113-50.59375-113-113s50.59375-113 113-113 113 50.59375 113 113-50.59375 113-113 113zm0 0" fill="#0635c9"/></svg>